<?xml version="1.0" encoding="utf-8"?>
<svg version="1.1" xmlns:xlink="http://www.w3.org/1999/xlink" width="104px" height="104px" xmlns="http://www.w3.org/2000/svg">
  <g transform="matrix(1 0 0 1 -335 -544 )">
    <path d="M 336 548  A 3 3 0 0 1 339 545 L 435 545  A 3 3 0 0 1 438 548 L 438 644  A 3 3 0 0 1 435 647 L 339 647  A 3 3 0 0 1 336 644 L 336 548  Z " fill-rule="nonzero" fill="#000000" stroke="none" fill-opacity="0.0196078431372549" />
    <path d="M 335.5 548  A 3.5 3.5 0 0 1 339 544.5 L 435 544.5  A 3.5 3.5 0 0 1 438.5 548 L 438.5 644  A 3.5 3.5 0 0 1 435 647.5 L 339 647.5  A 3.5 3.5 0 0 1 335.5 644 L 335.5 548  Z " stroke-width="1" stroke-dasharray="9,4" stroke="#d9d9d9" fill="none" stroke-dashoffset="0.5" />
  </g>
</svg>