<?xml version="1.0" encoding="utf-8"?>
<svg version="1.1" xmlns:xlink="http://www.w3.org/1999/xlink" width="24px" height="24px" xmlns="http://www.w3.org/2000/svg">
  <g transform="matrix(1 0 0 1 -279 -192 )">
    <path d="M 291 192  C 297.72 192  303 197.28  303 204  C 303 210.72  297.72 216  291 216  C 284.28 216  279 210.72  279 204  C 279 197.28  284.28 192  291 192  Z " fill-rule="nonzero" fill="#ffffff" stroke="none" />
    <path d="M 291 192.5  C 297.44 192.5  302.5 197.56  302.5 204  C 302.5 210.44  297.44 215.5  291 215.5  C 284.56 215.5  279.5 210.44  279.5 204  C 279.5 197.56  284.56 192.5  291 192.5  Z " stroke-width="1" stroke="#1890ff" fill="none" />
  </g>
</svg>