<?xml version="1.0" encoding="utf-8"?>
<svg version="1.1" xmlns:xlink="http://www.w3.org/1999/xlink" width="12px" height="10px" xmlns="http://www.w3.org/2000/svg">
  <g>
    <path d="M 11.8797595190381 8.17869415807561  C 11.9599198396793 8.29324169530355  12 8.4249713631157  12 8.57388316151203  C 12 8.72279495990836  11.9599198396793 8.8545246277205  11.8797595190381 8.96907216494846  L 11.2785571142285 9.82817869415808  C 11.1983967935872 9.94272623138603  11.1062124248497 10  11.002004008016 10  C 10.8977955911824 10  10.8056112224449 9.94272623138603  10.7254509018036 9.82817869415808  L 6 3.07560137457044  L 1.27454909819642 9.82817869415808  C 1.1943887775551 9.94272623138603  1.10220440881761 10  0.997995991983998 10  C 0.89378757515027 10  0.801603206412835 9.94272623138603  0.721442885771523 9.82817869415808  L 0.120240480961911 8.96907216494846  C 0.040080160320656 8.8545246277205  0 8.72279495990836  0 8.57388316151203  C 0 8.4249713631157  0.040080160320656 8.29324169530355  0.120240480961911 8.17869415807561  L 5.72344689378758 0.171821305841927  C 5.80360721442884 0.057273768613971  5.89579158316633 0  6 0  C 6.10420841683367 0  6.19639278557116 0.057273768613971  6.27655310621242 0.171821305841927  L 11.8797595190381 8.17869415807561  Z " fill-rule="nonzero" fill="#ffffff" stroke="none" />
  </g>
</svg>