<?xml version="1.0" encoding="utf-8"?>
<svg version="1.1" xmlns:xlink="http://www.w3.org/1999/xlink" width="40px" height="40px" xmlns="http://www.w3.org/2000/svg">
  <g transform="matrix(1 0 0 1 -1050 -70 )">
    <path d="M 1070 70  C 1081.2 70  1090 78.8  1090 90  C 1090 101.2  1081.2 110  1070 110  C 1058.8 110  1050 101.2  1050 90  C 1050 78.8  1058.8 70  1070 70  Z " fill-rule="nonzero" fill="#ffffff" stroke="none" />
    <path d="M 1070 70.5  C 1080.92 70.5  1089.5 79.08  1089.5 90  C 1089.5 100.92  1080.92 109.5  1070 109.5  C 1059.08 109.5  1050.5 100.92  1050.5 90  C 1050.5 79.08  1059.08 70.5  1070 70.5  Z " stroke-width="1" stroke="#797979" fill="none" />
  </g>
</svg>