<?xml version="1.0" encoding="utf-8"?>
<svg version="1.1" xmlns:xlink="http://www.w3.org/1999/xlink" width="32px" height="32px" xmlns="http://www.w3.org/2000/svg">
  <g transform="matrix(1 0 0 1 -651 -162 )">
    <path d="M 667 162  C 675.96 162  683 169.04  683 178  C 683 186.96  675.96 194  667 194  C 658.04 194  651 186.96  651 178  C 651 169.04  658.04 162  667 162  Z " fill-rule="nonzero" fill="#ffffff" stroke="none" />
    <path d="M 667 162.5  C 675.68 162.5  682.5 169.32  682.5 178  C 682.5 186.68  675.68 193.5  667 193.5  C 658.32 193.5  651.5 186.68  651.5 178  C 651.5 169.32  658.32 162.5  667 162.5  Z " stroke-width="1" stroke="#cccccc" fill="none" />
  </g>
</svg>