<?xml version="1.0" encoding="utf-8"?>
<svg version="1.1" xmlns:xlink="http://www.w3.org/1999/xlink" width="720px" height="242px" xmlns="http://www.w3.org/2000/svg">
  <g transform="matrix(1 0 0 1 -369 -278 )">
    <path d="M 369 278  L 1089 278  L 1089 520  L 369 520  L 369 278  " fill-rule="nonzero" fill="#cccccc" stroke="none" />
    <path d="M 386 295  L 1072 295  L 1072 503  L 386 503  L 386 295  " fill-rule="nonzero" fill="#ffffff" stroke="none" />
    <path d="M 761.55 350.6  C 751.386 350.6  743.4 342.614  743.4 332.45  C 743.4 322.286  751.386 314.3  761.55 314.3  C 771.714 314.3  779.7 322.286  779.7 332.45  C 779.7 342.614  771.714 350.6  761.55 350.6  " fill-rule="nonzero" fill="#cccccc" stroke="none" />
    <path d="M 392 497  L 392 389.2  L 560.5 340.2  L 796.4 457.473333333333  L 931.2 369.6  L 1066 457.473333333333  L 1066 497  L 392 497  " fill-rule="nonzero" fill="#169bd5" stroke="none" />
  </g>
</svg>