<?xml version="1.0" encoding="utf-8"?>
<svg version="1.1" xmlns:xlink="http://www.w3.org/1999/xlink" width="331px" height="198px" xmlns="http://www.w3.org/2000/svg">
  <g transform="matrix(1 0 0 1 -312 -232 )">
    <path d="M 312 232  L 643 232  L 643 430  L 312 430  L 312 232  " fill-rule="nonzero" fill="#cccccc" stroke="none" />
    <path d="M 326 246  L 629 246  L 629 416  L 326 416  L 326 246  " fill-rule="nonzero" fill="#ffffff" stroke="none" />
    <path d="M 498.97 291.4  C 490.654 291.4  484.12 284.866  484.12 276.55  C 484.12 268.234  490.654 261.7  498.97 261.7  C 507.286 261.7  513.82 268.234  513.82 276.55  C 513.82 284.866  507.286 291.4  498.97 291.4  " fill-rule="nonzero" fill="#cccccc" stroke="none" />
    <path d="M 331 411  L 331 323  L 404.25 283  L 506.8 353.574018126888  L 565.4 307  L 624 353.574018126888  L 624 411  L 331 411  " fill-rule="nonzero" fill="#169bd5" stroke="none" />
  </g>
</svg>