<?xml version="1.0" encoding="utf-8"?>
<svg version="1.1" xmlns:xlink="http://www.w3.org/1999/xlink" width="13px" height="19px" xmlns="http://www.w3.org/2000/svg">
  <g transform="matrix(1 0 0 1 -347 -382 )">
    <path d="M 12.5711805555555 8.6650390625  C 12.8570601851852 8.90006510416669  13 9.17838541666669  13 9.5  C 13 9.82161458333331  12.8570601851852 10.0999348958333  12.5711805555555 10.3349609375  L 2.46006944444446 18.6474609375  C 2.17418981481478 18.8824869791667  1.83564814814815 19  1.44444444444446 19  C 1.05324074074076 19  0.714699074074019 18.8824869791667  0.428819444444457 18.6474609375  C 0.142939814814781 18.4124348958333  0 18.1341145833333  0 17.8125  L 0 1.1875  C 0 0.865885416666686  0.142939814814781 0.587565104166686  0.428819444444457 0.3525390625  C 0.714699074074019 0.117513020833314  1.05324074074076 0  1.44444444444446 0  C 1.83564814814815 0  2.17418981481478 0.117513020833314  2.46006944444446 0.3525390625  L 12.5711805555555 8.6650390625  Z " fill-rule="nonzero" fill="#ffffff" stroke="none" transform="matrix(1 0 0 1 347 382 )" />
  </g>
</svg>