<?xml version="1.0" encoding="utf-8"?>
<svg version="1.1" xmlns:xlink="http://www.w3.org/1999/xlink" width="20px" height="15px" xmlns="http://www.w3.org/2000/svg">
  <g transform="matrix(1 0 0 1 -963 -250 )">
    <path d="M 14.8493303571429 11.7513020833333  C 16.3411458333333 10.6966145833333  17.5818452380952 9.27951388888889  18.5714285714287 7.5  C 17.4404761904761 5.45138888888889  16.0230654761904 3.91927083333334  14.3191964285713 2.90364583333334  C 14.7730654761904 3.80642361111111  15 4.78298611111111  15 5.83333333333334  C 15 7.43923611111111  14.5107886904761 8.81293402777777  13.5323660714287 9.95442708333334  C 12.553943452381 11.0959201388889  11.3764880952381 11.6666666666667  10 11.6666666666667  C 8.62351190476193 11.6666666666667  7.44605654761904 11.0959201388889  6.46763392857133 9.95442708333334  C 5.48921130952385 8.81293402777777  5 7.43923611111111  5 5.83333333333334  C 5 4.78298611111111  5.22693452380963 3.80642361111111  5.68080357142867 2.90364583333334  C 3.97693452380963 3.91927083333334  2.55952380952385 5.45138888888889  1.42857142857133 7.5  C 2.41815476190482 9.27951388888889  3.65885416666674 10.6966145833333  5.15066964285711 11.7513020833333  C 6.64248511904771 12.8059895833333  8.25892857142867 13.3333333333333  10 13.3333333333333  C 11.7410714285713 13.3333333333333  13.3575148809523 12.8059895833333  14.8493303571429 11.7513020833333  Z M 10.3794642857142 2.94270833333334  C 10.483630952381 2.82118055555557  10.5357142857142 2.67361111111111  10.5357142857142 2.5  C 10.5357142857142 2.32638888888889  10.483630952381 2.17881944444446  10.3794642857142 2.05729166666666  C 10.2752976190477 1.93576388888889  10.1488095238096 1.875  10 1.875  C 9.06994047619037 1.875  8.27194940476193 2.26345486111111  7.60602678571422 3.04036458333334  C 6.94010416666674 3.81727430555557  6.60714285714289 4.74826388888889  6.60714285714289 5.83333333333334  C 6.60714285714289 6.00694444444443  6.65922619047615 6.15451388888889  6.76339285714289 6.27604166666666  C 6.86755952380963 6.39756944444446  6.99404761904771 6.45833333333334  7.14285714285711 6.45833333333334  C 7.29166666666674 6.45833333333334  7.41815476190482 6.39756944444446  7.52232142857133 6.27604166666666  C 7.62648809523807 6.15451388888889  7.67857142857133 6.00694444444443  7.67857142857133 5.83333333333334  C 7.67857142857133 5.08680555555554  7.90550595238096 4.44878472222223  8.359375 3.91927083333334  C 8.81324404761904 3.38975694444443  9.36011904761904 3.125  10 3.125  C 10.1488095238096 3.125  10.2752976190477 3.06423611111111  10.3794642857142 2.94270833333334  Z M 19.7767857142858 6.6015625  C 19.9255952380952 6.90538194444443  20 7.20486111111111  20 7.5  C 20 7.79513888888889  19.9255952380952 8.09461805555557  19.7767857142858 8.3984375  C 18.735119047619 10.3949652777778  17.3344494047619 11.9943576388889  15.5747767857142 13.1966145833333  C 13.8151041666667 14.3988715277778  11.9568452380952 15  10 15  C 8.04315476190482 15  6.18489583333326 14.3967013888889  4.42522321428578 13.1901041666667  C 2.66555059523807 11.9835069444445  1.26488095238096 10.3862847222222  0.223214285714221 8.3984375  C 0.074404761904816 8.09461805555557  0 7.79513888888889  0 7.5  C 0 7.20486111111111  0.074404761904816 6.90538194444443  0.223214285714221 6.6015625  C 1.26488095238096 4.61371527777777  2.66555059523807 3.01649305555557  4.42522321428578 1.80989583333334  C 6.18489583333326 0.603298611111114  8.04315476190482 0  10 0  C 11.9568452380952 0  13.8151041666667 0.603298611111114  15.5747767857142 1.80989583333334  C 17.3344494047619 3.01649305555557  18.735119047619 4.61371527777777  19.7767857142858 6.6015625  Z " fill-rule="nonzero" fill="#333333" stroke="none" transform="matrix(1 0 0 1 963 250 )" />
  </g>
</svg>