<?xml version="1.0" encoding="utf-8"?>
<svg version="1.1" xmlns:xlink="http://www.w3.org/1999/xlink" width="20px" height="20px" xmlns="http://www.w3.org/2000/svg">
  <g transform="matrix(1 0 0 1 -1075 -248 )">
    <path d="M 14.53125 17.5551354757404  L 13.6658653846155 12.2495274102079  L 17.34375 8.50661625708887  L 12.2716346153845 7.72526780088214  L 10 2.91115311909266  L 7.72836538461547 7.72526780088214  L 2.65625 8.50661625708887  L 6.33413461538453 12.2495274102079  L 5.45673076923072 17.5551354757404  L 10 15.047258979206  L 14.53125 17.5551354757404  Z M 19.3269230769231 7.17076244486452  C 19.7756410256411 7.24637681159419  20 7.43961352657004  20 7.75047258979208  C 20 7.93530770846462  19.8958333333333 8.13694601974373  19.6875 8.35538752362947  L 15.3245192307693 12.8166351606805  L 16.3581730769231 19.1178323881537  C 16.3661858974358 19.1766435622768  16.3701923076924 19.2606595253098  16.3701923076924 19.3698802772527  C 16.3701923076924 19.7899600924176  16.2059294871794 20  15.8774038461538 20  C 15.7251602564102 20  15.5649038461538 19.9495904221802  15.3966346153845 19.8487712665407  L 10 16.8746061751733  L 4.60336538461547 19.8487712665407  C 4.42708333333326 19.9495904221802  4.26682692307691 20  4.12259615384619 20  C 3.95432692307691 20  3.828125 19.9390884268011  3.74399038461547 19.8172652804033  C 3.65985576923072 19.6954421340055  3.61778846153857 19.5463137996219  3.61778846153857 19.3698802772527  C 3.61778846153857 19.3194706994329  3.62580128205127 19.2354547363999  3.64182692307691 19.1178323881537  L 4.67548076923072 12.8166351606805  L 0.300480769230717 8.35538752362947  C 0.100160256410163 8.12854442344047  0 7.9269061121613  0 7.75047258979208  C 0 7.43961352657004  0.224358974358893 7.24637681159419  0.673076923076906 7.17076244486452  L 6.70673076923072 6.25078764965343  L 9.41105769230762 0.516698172652809  C 9.56330128205127 0.172232724217565  9.75961538461547 0  10 0  C 10.2403846153845 0  10.4366987179487 0.172232724217565  10.5889423076924 0.516698172652809  L 13.2932692307693 6.25078764965343  L 19.3269230769231 7.17076244486452  Z " fill-rule="nonzero" fill="#333333" stroke="none" transform="matrix(1 0 0 1 1075 248 )" />
  </g>
</svg>