<?xml version="1.0" encoding="utf-8"?>
<svg version="1.1" xmlns:xlink="http://www.w3.org/1999/xlink" width="35px" height="35px" xmlns="http://www.w3.org/2000/svg">
  <g transform="matrix(1 0 0 1 -335 -374 )">
    <path d="M 352.5 376  C 361.18 376  368 382.82  368 391.5  C 368 400.18  361.18 407  352.5 407  C 343.82 407  337 400.18  337 391.5  C 337 382.82  343.82 376  352.5 376  Z " fill-rule="nonzero" fill="#666666" stroke="none" />
    <path d="M 352.5 375.5  C 361.46 375.5  368.5 382.54  368.5 391.5  C 368.5 400.46  361.46 407.5  352.5 407.5  C 343.54 407.5  336.5 400.46  336.5 391.5  C 336.5 382.54  343.54 375.5  352.5 375.5  Z " stroke-width="3" stroke="#ffffff" fill="none" />
  </g>
</svg>