<?xml version="1.0" encoding="utf-8"?>
<svg version="1.1" xmlns:xlink="http://www.w3.org/1999/xlink" width="80px" height="32px" xmlns="http://www.w3.org/2000/svg">
  <defs>
    <mask fill="white" id="clip219">
      <path d="M 80 4  L 80 28  C 80 30.24  77.5298245614035 32  74.3859649122807 32  L 5.61403508771934 32  C 2.47017543859647 32  0 30.24  0 28  L 0 4  C 0 1.75999999999999  2.47017543859647 0  5.61403508771934 0  L 74.3859649122807 0  C 77.5298245614035 0  80 1.75999999999999  80 4  Z " fill-rule="evenodd" />
    </mask>
  </defs>
  <g transform="matrix(1 0 0 1 -561 -139 )">
    <path d="M 80 4  L 80 28  C 80 30.24  77.5298245614035 32  74.3859649122807 32  L 5.61403508771934 32  C 2.47017543859647 32  0 30.24  0 28  L 0 4  C 0 1.75999999999999  2.47017543859647 0  5.61403508771934 0  L 74.3859649122807 0  C 77.5298245614035 0  80 1.75999999999999  80 4  Z " fill-rule="nonzero" fill="#ffffff" stroke="none" transform="matrix(1 0 0 1 561 139 )" />
    <path d="M 80 4  L 80 28  C 80 30.24  77.5298245614035 32  74.3859649122807 32  L 5.61403508771934 32  C 2.47017543859647 32  0 30.24  0 28  L 0 4  C 0 1.75999999999999  2.47017543859647 0  5.61403508771934 0  L 74.3859649122807 0  C 77.5298245614035 0  80 1.75999999999999  80 4  Z " stroke-width="2" stroke="#cccccc" fill="none" transform="matrix(1 0 0 1 561 139 )" mask="url(#clip219)" />
  </g>
</svg>