<?xml version="1.0" encoding="utf-8"?>
<svg version="1.1" xmlns:xlink="http://www.w3.org/1999/xlink" width="12px" height="12px" viewBox="533 730  12 12" xmlns="http://www.w3.org/2000/svg">
  <path d="M 539 730  C 542.36 730  545 732.64  545 736  C 545 739.36  542.36 742  539 742  C 535.64 742  533 739.36  533 736  C 533 732.64  535.64 730  539 730  Z " fill-rule="nonzero" fill="#ffffff" stroke="none" />
  <path d="M 539 730.5  C 542.08 730.5  544.5 732.92  544.5 736  C 544.5 739.08  542.08 741.5  539 741.5  C 535.92 741.5  533.5 739.08  533.5 736  C 533.5 732.92  535.92 730.5  539 730.5  Z " stroke-width="1" stroke="#797979" fill="none" />
  <path d="M 539 739  C 537.32 739  536 737.68  536 736  C 536 734.32  537.32 733  539 733  C 540.68 733  542 734.32  542 736  C 542 737.68  540.68 739  539 739  " fill-rule="nonzero" fill="#797979" stroke="none" />
</svg>