<?xml version="1.0" encoding="utf-8"?>
<svg version="1.1" xmlns:xlink="http://www.w3.org/1999/xlink" width="105px" height="100px" xmlns="http://www.w3.org/2000/svg">
  <g transform="matrix(1 0 0 1 -592 -860 )">
    <path d="M 19.0909090909091 72.7272727272727  L 28.6363636363636 72.7272727272727  L 28.6363636363636 81.8181818181818  L 19.0909090909091 81.8181818181818  L 19.0909090909091 72.7272727272727  Z M 19.0909090909091 18.1818181818182  L 28.6363636363636 18.1818181818182  L 28.6363636363636 27.2727272727273  L 19.0909090909091 27.2727272727273  L 19.0909090909091 18.1818181818182  Z M 76.3636363636364 18.1818181818182  L 85.9090909090909 18.1818181818182  L 85.9090909090909 27.2727272727273  L 76.3636363636364 27.2727272727273  L 76.3636363636364 18.1818181818182  Z M 10 63  L 10 90  L 39 90  L 39 63  L 10 63  Z M 10 9  L 10 37  L 39 37  L 39 9  L 10 9  Z M 66 9  L 66 37  L 95 37  L 95 9  L 66 9  Z M 0 54  L 48 54  L 48 100  L 0 100  L 0 54  Z M 76.3636363636364 90.9090909090909  L 85.9090909090909 90.9090909090909  L 85.9090909090909 100  L 76.3636363636364 100  L 76.3636363636364 90.9090909090909  Z M 95.4545454545455 90.9090909090909  L 105 90.9090909090909  L 105 100  L 95.4545454545455 100  L 95.4545454545455 90.9090909090909  Z M 95.4545454545455 54.5454545454545  L 105 54.5454545454545  L 105 81  L 76.3636363636364 81  L 76.3636363636364 72.7272727272727  L 66 72.7272727272727  L 66 100  L 57 100  L 57 54  L 85.9090909090909 54  L 85.9090909090909 63.6363636363636  L 95.4545454545455 63.6363636363636  L 95.4545454545455 54.5454545454545  Z M 0 0  L 48 0  L 48 46  L 0 46  L 0 0  Z M 57 0  L 105 0  L 105 46  L 57 46  L 57 0  Z " fill-rule="nonzero" fill="#333333" stroke="none" transform="matrix(1 0 0 1 592 860 )" />
  </g>
</svg>