<?xml version="1.0" encoding="utf-8"?>
<svg version="1.1" xmlns:xlink="http://www.w3.org/1999/xlink" width="36px" height="52px" xmlns="http://www.w3.org/2000/svg">
  <g transform="matrix(1 0 0 1 -640 -368 )">
    <path d="M 34.8125 23.71484375  C 35.6041666666668 24.3580729166667  36 25.1197916666667  36 26  C 36 26.8802083333333  35.6041666666668 27.6419270833333  34.8125 28.28515625  L 6.81250000000003 51.03515625  C 6.02083333333324 51.6783854166667  5.08333333333334 52  4.00000000000003 52  C 2.91666666666673 52  1.97916666666652 51.6783854166667  1.18750000000004 51.03515625  C 0.39583333333324 50.3919270833333  0 49.6302083333333  0 48.75  L 0 3.25  C 0 2.36979166666672  0.39583333333324 1.60807291666672  1.18750000000004 0.96484375  C 1.97916666666652 0.321614583333282  2.91666666666673 0  4.00000000000003 0  C 5.08333333333334 0  6.02083333333324 0.321614583333282  6.81250000000003 0.96484375  L 34.8125 23.71484375  Z " fill-rule="nonzero" fill="#ffffff" stroke="none" transform="matrix(1 0 0 1 640 368 )" />
  </g>
</svg>