<?xml version="1.0" encoding="utf-8"?>
<svg version="1.1" xmlns:xlink="http://www.w3.org/1999/xlink" width="590px" height="348px" xmlns="http://www.w3.org/2000/svg">
  <g transform="matrix(1 0 0 1 -360 -220 )">
    <path d="M 360 220  L 950 220  L 950 568  L 360 568  L 360 220  " fill-rule="nonzero" fill="#cccccc" stroke="none" />
    <path d="M 384 244  L 926 244  L 926 544  L 384 544  L 384 244  " fill-rule="nonzero" fill="#ffffff" stroke="none" />
    <path d="M 692.9 324.4  C 678.284 324.4  666.8 312.916  666.8 298.3  C 666.8 283.684  678.284 272.2  692.9 272.2  C 707.516 272.2  719 283.684  719 298.3  C 719 312.916  707.516 324.4  692.9 324.4  " fill-rule="nonzero" fill="#cccccc" stroke="none" />
    <path d="M 393 536  L 393 380.35  L 524.25 309.6  L 708 435.846779661017  L 813 352.05  L 918 435.846779661017  L 918 536  L 393 536  " fill-rule="nonzero" fill="#169bd5" stroke="none" />
  </g>
</svg>