<?xml version="1.0" encoding="utf-8"?>
<svg version="1.1" xmlns:xlink="http://www.w3.org/1999/xlink" width="12px" height="12px" viewBox="521 1256  12 12" xmlns="http://www.w3.org/2000/svg">
  <path d="M 527 1256  C 530.36 1256  533 1258.64  533 1262  C 533 1265.36  530.36 1268  527 1268  C 523.64 1268  521 1265.36  521 1262  C 521 1258.64  523.64 1256  527 1256  Z " fill-rule="nonzero" fill="#ffffff" stroke="none" />
  <path d="M 527 1256.5  C 530.08 1256.5  532.5 1258.92  532.5 1262  C 532.5 1265.08  530.08 1267.5  527 1267.5  C 523.92 1267.5  521.5 1265.08  521.5 1262  C 521.5 1258.92  523.92 1256.5  527 1256.5  Z " stroke-width="1" stroke="#797979" fill="none" />
  <path d="M 527 1265  C 525.32 1265  524 1263.68  524 1262  C 524 1260.32  525.32 1259  527 1259  C 528.68 1259  530 1260.32  530 1262  C 530 1263.68  528.68 1265  527 1265  " fill-rule="nonzero" fill="#797979" stroke="none" />
</svg>