<?xml version="1.0" encoding="utf-8"?>
<svg version="1.1" xmlns:xlink="http://www.w3.org/1999/xlink" width="12px" height="12px" viewBox="266 2  12 12" xmlns="http://www.w3.org/2000/svg">
  <path d="M 272 2  C 275.36 2  278 4.64  278 8  C 278 11.36  275.36 14  272 14  C 268.64 14  266 11.36  266 8  C 266 4.64  268.64 2  272 2  Z " fill-rule="nonzero" fill="#ffffff" stroke="none" />
  <path d="M 272 2.5  C 275.08 2.5  277.5 4.92  277.5 8  C 277.5 11.08  275.08 13.5  272 13.5  C 268.92 13.5  266.5 11.08  266.5 8  C 266.5 4.92  268.92 2.5  272 2.5  Z " stroke-width="1" stroke="#797979" fill="none" />
  <path d="M 272 11  C 270.32 11  269 9.68  269 8  C 269 6.32  270.32 5  272 5  C 273.68 5  275 6.32  275 8  C 275 9.68  273.68 11  272 11  " fill-rule="nonzero" fill="#797979" stroke="none" />
</svg>