<?xml version="1.0" encoding="utf-8"?>
<svg version="1.1" xmlns:xlink="http://www.w3.org/1999/xlink" width="12px" height="12px" viewBox="172 2  12 12" xmlns="http://www.w3.org/2000/svg">
  <path d="M 178 2  C 181.36 2  184 4.64  184 8  C 184 11.36  181.36 14  178 14  C 174.64 14  172 11.36  172 8  C 172 4.64  174.64 2  178 2  Z " fill-rule="nonzero" fill="#ffffff" stroke="none" />
  <path d="M 178 2.5  C 181.08 2.5  183.5 4.92  183.5 8  C 183.5 11.08  181.08 13.5  178 13.5  C 174.92 13.5  172.5 11.08  172.5 8  C 172.5 4.92  174.92 2.5  178 2.5  Z " stroke-width="1" stroke="#797979" fill="none" />
  <path d="M 178 11  C 176.32 11  175 9.68  175 8  C 175 6.32  176.32 5  178 5  C 179.68 5  181 6.32  181 8  C 181 9.68  179.68 11  178 11  " fill-rule="nonzero" fill="#797979" stroke="none" />
</svg>