<?xml version="1.0" encoding="utf-8"?>
<svg version="1.1" xmlns:xlink="http://www.w3.org/1999/xlink" width="24px" height="24px" xmlns="http://www.w3.org/2000/svg">
  <g transform="matrix(1 0 0 1 -585 -219 )">
    <path d="M 597 219  C 603.72 219  609 224.28  609 231  C 609 237.72  603.72 243  597 243  C 590.28 243  585 237.72  585 231  C 585 224.28  590.28 219  597 219  Z " fill-rule="nonzero" fill="#ffffff" stroke="none" />
    <path d="M 597 219.5  C 603.44 219.5  608.5 224.56  608.5 231  C 608.5 237.44  603.44 242.5  597 242.5  C 590.56 242.5  585.5 237.44  585.5 231  C 585.5 224.56  590.56 219.5  597 219.5  Z " stroke-width="1" stroke="#cccccc" fill="none" />
  </g>
</svg>