<?xml version="1.0" encoding="utf-8"?>
<svg version="1.1" xmlns:xlink="http://www.w3.org/1999/xlink" width="100px" height="50px" xmlns="http://www.w3.org/2000/svg">
  <g transform="matrix(1 0 0 1 -30 -141 )">
    <path d="M 30 141  L 130 141  L 130 191  L 30 191  L 30 141  " fill-rule="nonzero" fill="#cccccc" stroke="none" />
    <path d="M 34 145  L 126 145  L 126 187  L 34 187  L 34 145  " fill-rule="nonzero" fill="#ffffff" stroke="none" />
    <path d="M 85.75 156  C 83.65 156  82 154.35  82 152.25  C 82 150.15  83.65 148.5  85.75 148.5  C 87.85 148.5  89.5 150.15  89.5 152.25  C 89.5 154.35  87.85 156  85.75 156  " fill-rule="nonzero" fill="#cccccc" stroke="none" />
    <path d="M 36 186  L 36 164.55  L 58.25 154.8  L 89.4 174.3  L 107.2 160.65  L 125 174.3  L 125 186  L 36 186  " fill-rule="nonzero" fill="#169bd5" stroke="none" />
  </g>
</svg>