<?xml version="1.0" encoding="utf-8"?>
<svg version="1.1" xmlns:xlink="http://www.w3.org/1999/xlink" width="12px" height="12px" viewBox="533 556  12 12" xmlns="http://www.w3.org/2000/svg">
  <path d="M 539 556  C 542.36 556  545 558.64  545 562  C 545 565.36  542.36 568  539 568  C 535.64 568  533 565.36  533 562  C 533 558.64  535.64 556  539 556  Z " fill-rule="nonzero" fill="#ffffff" stroke="none" />
  <path d="M 539 556.5  C 542.08 556.5  544.5 558.92  544.5 562  C 544.5 565.08  542.08 567.5  539 567.5  C 535.92 567.5  533.5 565.08  533.5 562  C 533.5 558.92  535.92 556.5  539 556.5  Z " stroke-width="1" stroke="#797979" fill="none" />
  <path d="M 539 565  C 537.32 565  536 563.68  536 562  C 536 560.32  537.32 559  539 559  C 540.68 559  542 560.32  542 562  C 542 563.68  540.68 565  539 565  " fill-rule="nonzero" fill="#797979" stroke="none" />
</svg>