<?xml version="1.0" encoding="utf-8"?>
<svg version="1.1" xmlns:xlink="http://www.w3.org/1999/xlink" width="12px" height="12px" viewBox="459 556  12 12" xmlns="http://www.w3.org/2000/svg">
  <path d="M 465 556  C 468.36 556  471 558.64  471 562  C 471 565.36  468.36 568  465 568  C 461.64 568  459 565.36  459 562  C 459 558.64  461.64 556  465 556  Z " fill-rule="nonzero" fill="#ffffff" stroke="none" />
  <path d="M 465 556.5  C 468.08 556.5  470.5 558.92  470.5 562  C 470.5 565.08  468.08 567.5  465 567.5  C 461.92 567.5  459.5 565.08  459.5 562  C 459.5 558.92  461.92 556.5  465 556.5  Z " stroke-width="1" stroke="#797979" fill="none" />
  <path d="M 465 565  C 463.32 565  462 563.68  462 562  C 462 560.32  463.32 559  465 559  C 466.68 559  468 560.32  468 562  C 468 563.68  466.68 565  465 565  " fill-rule="nonzero" fill="#797979" stroke="none" />
</svg>