<?xml version="1.0" encoding="utf-8"?>
<svg version="1.1" xmlns:xlink="http://www.w3.org/1999/xlink" width="8px" height="7px" xmlns="http://www.w3.org/2000/svg">
  <g transform="matrix(1 0 0 1 -30 -337 )">
    <path d="M 7.91517857142857 3.32421875000001  C 7.97172619047619 3.37369791666667  8 3.43229166666666  8 3.5  C 8 3.56770833333334  7.97172619047619 3.62630208333333  7.91517857142857 3.67578124999999  L 6.77232142857143 4.67578125  C 6.71577380952381 4.72526041666666  6.64880952380952 4.74999999999999  6.57142857142857 4.74999999999999  C 6.49404761904761 4.74999999999999  6.42708333333333 4.72526041666666  6.37053571428571 4.67578125  C 6.31398809523809 4.62630208333334  6.28571428571429 4.56770833333331  6.28571428571429 4.50000000000001  L 6.28571428571429 4.00000000000001  L 4.57142857142857 4.00000000000001  L 4.57142857142857 5.50000000000002  L 5.14285714285715 5.50000000000002  C 5.22023809523809 5.50000000000002  5.28720238095239 5.52473958333331  5.34375 5.57421874999998  C 5.40029761904761 5.62369791666664  5.42857142857143 5.68229166666666  5.42857142857143 5.75000000000001  C 5.42857142857143 5.81770833333335  5.40029761904761 5.87630208333333  5.34375 5.92578124999999  L 4.20089285714285 6.92578125000001  C 4.14434523809524 6.97526041666667  4.07738095238095 7  4 7  C 3.92261904761905 7  3.85565476190476 6.97526041666667  3.79910714285715 6.92578125000001  L 2.65625 5.92578124999999  C 2.59970238095239 5.87630208333333  2.57142857142857 5.81770833333335  2.57142857142857 5.75000000000001  C 2.57142857142857 5.68229166666666  2.59970238095239 5.62369791666664  2.65625 5.57421874999998  C 2.71279761904761 5.52473958333331  2.77976190476191 5.50000000000002  2.85714285714285 5.50000000000002  L 3.42857142857143 5.50000000000002  L 3.42857142857143 4.00000000000001  L 1.71428571428571 4.00000000000001  L 1.71428571428571 4.50000000000001  C 1.71428571428571 4.56770833333331  1.68601190476191 4.62630208333334  1.62946428571429 4.67578125  C 1.57291666666667 4.72526041666666  1.50595238095239 4.74999999999999  1.42857142857143 4.74999999999999  C 1.35119047619048 4.74999999999999  1.28422619047619 4.72526041666666  1.22767857142857 4.67578125  L 0.0848214285714334 3.67578124999999  C 0.0282738095238074 3.62630208333333  0 3.56770833333334  0 3.5  C 0 3.43229166666666  0.0282738095238074 3.37369791666667  0.0848214285714334 3.32421875000001  L 1.22767857142857 2.32421875  C 1.28422619047619 2.27473958333334  1.35119047619048 2.25000000000001  1.42857142857143 2.25000000000001  C 1.50595238095239 2.25000000000001  1.57291666666667 2.27473958333334  1.62946428571429 2.32421875  C 1.68601190476191 2.37369791666666  1.71428571428571 2.43229166666669  1.71428571428571 2.49999999999999  L 1.71428571428571 2.99999999999999  L 3.42857142857143 2.99999999999999  L 3.42857142857143 1.49999999999998  L 2.85714285714285 1.49999999999998  C 2.77976190476191 1.49999999999998  2.71279761904761 1.47526041666669  2.65625 1.42578125000002  C 2.59970238095239 1.37630208333336  2.57142857142857 1.31770833333334  2.57142857142857 1.24999999999999  C 2.57142857142857 1.18229166666665  2.59970238095239 1.12369791666667  2.65625 1.07421875000001  L 3.79910714285715 0.0742187499999943  C 3.85565476190476 0.0247395833333314  3.92261904761905 0  4 0  C 4.07738095238095 0  4.14434523809524 0.0247395833333314  4.20089285714285 0.0742187499999943  L 5.34375 1.07421875000001  C 5.40029761904761 1.12369791666667  5.42857142857143 1.18229166666665  5.42857142857143 1.24999999999999  C 5.42857142857143 1.31770833333334  5.40029761904761 1.37630208333336  5.34375 1.42578125000002  C 5.28720238095239 1.47526041666669  5.22023809523809 1.49999999999998  5.14285714285715 1.49999999999998  L 4.57142857142857 1.49999999999998  L 4.57142857142857 2.99999999999999  L 6.28571428571429 2.99999999999999  L 6.28571428571429 2.49999999999999  C 6.28571428571429 2.43229166666669  6.31398809523809 2.37369791666666  6.37053571428571 2.32421875  C 6.42708333333333 2.27473958333334  6.49404761904761 2.25000000000001  6.57142857142857 2.25000000000001  C 6.64880952380952 2.25000000000001  6.71577380952381 2.27473958333334  6.77232142857143 2.32421875  L 7.91517857142857 3.32421875000001  Z " fill-rule="nonzero" fill="#ffffff" stroke="none" transform="matrix(1 0 0 1 30 337 )" />
  </g>
</svg>