<?xml version="1.0" encoding="utf-8"?>
<svg version="1.1" xmlns:xlink="http://www.w3.org/1999/xlink" width="12px" height="10px" xmlns="http://www.w3.org/2000/svg">
  <g>
    <path d="M 11.8797595190381 1.03092783505154  C 11.9599198396793 1.14547537227949  12 1.27720504009164  12 1.42611683848797  C 12 1.5750286368843  11.9599198396793 1.70675830469645  11.8797595190381 1.8213058419244  L 6.27655310621242 9.82817869415807  C 6.19639278557116 9.94272623138603  6.10420841683367 10  6 10  C 5.89579158316633 10  5.80360721442884 9.94272623138603  5.72344689378758 9.82817869415807  L 0.120240480961911 1.8213058419244  C 0.040080160320656 1.70675830469645  0 1.5750286368843  0 1.42611683848797  C 0 1.27720504009164  0.040080160320656 1.14547537227949  0.120240480961911 1.03092783505154  L 0.721442885771523 0.171821305841924  C 0.801603206412835 0.0572737686139746  0.893787575150327 0  0.997995991983942 0  C 1.10220440881761 0  1.1943887775551 0.0572737686139746  1.27454909819642 0.171821305841924  L 6 6.92439862542955  L 10.7254509018036 0.171821305841924  C 10.8056112224449 0.0572737686139746  10.8977955911824 0  11.0020040080161 0  C 11.1062124248497 0  11.1983967935872 0.0572737686139746  11.2785571142285 0.171821305841924  L 11.8797595190381 1.03092783505154  Z " fill-rule="nonzero" fill="#ffffff" stroke="none" />
  </g>
</svg>