<?xml version="1.0" encoding="utf-8"?>
<svg version="1.1" xmlns:xlink="http://www.w3.org/1999/xlink" width="96px" height="96px" xmlns="http://www.w3.org/2000/svg">
  <g transform="matrix(1 0 0 1 -607 -346 )">
    <path d="M 655 348  C 680.76 348  701 368.24  701 394  C 701 419.76  680.76 440  655 440  C 629.24 440  609 419.76  609 394  C 609 368.24  629.24 348  655 348  Z " fill-rule="nonzero" fill="#666666" stroke="none" />
    <path d="M 655 347.5  C 681.04 347.5  701.5 367.96  701.5 394  C 701.5 420.04  681.04 440.5  655 440.5  C 628.96 440.5  608.5 420.04  608.5 394  C 608.5 367.96  628.96 347.5  655 347.5  Z " stroke-width="3" stroke="#ffffff" fill="none" />
  </g>
</svg>