<?xml version="1.0" encoding="utf-8"?>
<svg version="1.1" xmlns:xlink="http://www.w3.org/1999/xlink" width="20px" height="15px" xmlns="http://www.w3.org/2000/svg">
  <g transform="matrix(1 0 0 1 -1023 -250 )">
    <path d="M 6.72433035714289 5.3662109375  C 7.00334821428578 5.6103515625  7.14285714285711 5.90494791666667  7.14285714285711 6.25  C 7.14285714285711 6.59505208333334  7.00334821428578 6.8896484375  6.72433035714289 7.1337890625  C 6.4453125 7.3779296875  6.10863095238096 7.5  5.71428571428578 7.5  C 5.31994047619037 7.5  4.98325892857133 7.3779296875  4.70424107142867 7.1337890625  C 4.42522321428578 6.8896484375  4.28571428571422 6.59505208333334  4.28571428571422 6.25  C 4.28571428571422 5.90494791666667  4.42522321428578 5.6103515625  4.70424107142867 5.3662109375  C 4.98325892857133 5.1220703125  5.31994047619037 5  5.71428571428578 5  C 6.10863095238096 5  6.4453125 5.1220703125  6.72433035714289 5.3662109375  Z M 11.0100446428571 5.3662109375  C 11.2890625 5.6103515625  11.4285714285713 5.90494791666667  11.4285714285713 6.25  C 11.4285714285713 6.59505208333334  11.2890625 6.8896484375  11.0100446428571 7.1337890625  C 10.7310267857142 7.3779296875  10.3943452380952 7.5  10 7.5  C 9.60565476190482 7.5  9.26897321428578 7.3779296875  8.98995535714289 7.1337890625  C 8.7109375 6.8896484375  8.57142857142867 6.59505208333334  8.57142857142867 6.25  C 8.57142857142867 5.90494791666667  8.7109375 5.6103515625  8.98995535714289 5.3662109375  C 9.26897321428578 5.1220703125  9.60565476190482 5  10 5  C 10.3943452380952 5  10.7310267857142 5.1220703125  11.0100446428571 5.3662109375  Z M 15.2957589285713 5.3662109375  C 15.5747767857142 5.6103515625  15.7142857142858 5.90494791666667  15.7142857142858 6.25  C 15.7142857142858 6.59505208333334  15.5747767857142 6.8896484375  15.2957589285713 7.1337890625  C 15.0167410714287 7.3779296875  14.6800595238096 7.5  14.2857142857142 7.5  C 13.891369047619 7.5  13.5546875 7.3779296875  13.2756696428571 7.1337890625  C 12.9966517857142 6.8896484375  12.8571428571429 6.59505208333334  12.8571428571429 6.25  C 12.8571428571429 5.90494791666667  12.9966517857142 5.6103515625  13.2756696428571 5.3662109375  C 13.5546875 5.1220703125  13.891369047619 5  14.2857142857142 5  C 14.6800595238096 5  15.0167410714287 5.1220703125  15.2957589285713 5.3662109375  Z M 14.2578125 1.9287109375  C 12.9371279761904 1.47623697916666  11.5178571428571 1.25  10 1.25  C 8.48214285714289 1.25  7.06287202380963 1.47623697916666  5.7421875 1.9287109375  C 4.42150297619037 2.38118489583334  3.37239583333326 2.99153645833334  2.59486607142867 3.759765625  C 1.81733630952385 4.52799479166666  1.42857142857133 5.35807291666666  1.42857142857133 6.25  C 1.42857142857133 6.97916666666666  1.69456845238096 7.67415364583333  2.2265625 8.3349609375  C 2.75855654761904 8.99576822916667  3.50818452380963 9.56705729166667  4.47544642857133 10.048828125  L 5.44642857142867 10.537109375  L 5.14508928571422 11.474609375  C 4.96651785714289 12.0670572916667  4.70610119047615 12.626953125  4.36383928571422 13.154296875  C 5.49479166666674 12.744140625  6.51785714285711 12.1875  7.43303571428578 11.484375  L 7.91294642857133 11.11328125  L 8.54910714285711 11.171875  C 9.0625 11.2239583333333  9.54613095238096 11.25  10 11.25  C 11.5178571428571 11.25  12.9371279761904 11.0237630208333  14.2578125 10.5712890625  C 15.5784970238096 10.1188151041667  16.6276041666667 9.50846354166667  17.4051339285713 8.740234375  C 18.1826636904761 7.97200520833333  18.5714285714287 7.14192708333334  18.5714285714287 6.25  C 18.5714285714287 5.35807291666666  18.1826636904761 4.52799479166666  17.4051339285713 3.759765625  C 16.6276041666667 2.99153645833334  15.5784970238096 2.38118489583334  14.2578125 1.9287109375  Z M 19.2075892857142 3.8232421875  C 19.7358630952381 4.5947265625  20 5.40364583333333  20 6.25  C 20 7.3828125  19.5535714285713 8.42936197916666  18.6607142857142 9.3896484375  C 17.7678571428571 10.3499348958333  16.5550595238096 11.1083984375  15.0223214285713 11.6650390625  C 13.4895833333333 12.2216796875  11.8154761904761 12.5  10 12.5  C 9.47916666666674 12.5  8.93973214285711 12.4739583333333  8.38169642857133 12.421875  C 6.90848214285711 13.5611979166667  5.19717261904771 14.3489583333333  3.24776785714289 14.78515625  C 2.88318452380963 14.8763020833333  2.45907738095229 14.9479166666667  1.97544642857133 15  L 1.91964285714289 15  C 1.80803571428578 15  1.70758928571422 14.9658203125  1.61830357142867 14.8974609375  C 1.52901785714289 14.8291015625  1.46949404761904 14.7395833333333  1.43973214285711 14.62890625  L 1.43973214285711 14.619140625  C 1.41741071428578 14.5930989583333  1.41555059523807 14.5540364583333  1.43415178571422 14.501953125  C 1.45275297619037 14.4498697916667  1.46019345238096 14.4173177083333  1.45647321428578 14.404296875  C 1.45275297619037 14.3912760416667  1.46949404761904 14.3603515625  1.50669642857133 14.3115234375  L 1.57366071428578 14.2236328125  C 1.57366071428578 14.2236328125  1.59970238095229 14.1959635416667  1.65178571428578 14.140625  C 1.70386904761904 14.0852864583333  1.73363095238096 14.0559895833333  1.74107142857133 14.052734375  C 1.79315476190482 14.0006510416667  1.90848214285711 13.8883463541667  2.08705357142867 13.7158203125  C 2.265625 13.5432942708333  2.39397321428578 13.4195963541667  2.47209821428578 13.3447265625  C 2.55022321428578 13.2698567708333  2.66555059523807 13.1412760416667  2.81808035714289 12.958984375  C 2.97061011904771 12.7766927083333  3.09151785714289 12.6106770833333  3.18080357142867 12.4609375  C 3.27008928571422 12.3111979166667  3.37053571428578 12.119140625  3.48214285714289 11.884765625  C 3.59375 11.650390625  3.69047619047615 11.4029947916667  3.77232142857133 11.142578125  C 2.60416666666674 10.5631510416667  1.68340773809518 9.84700520833333  1.01004464285711 8.994140625  C 0.336681547619037 8.14127604166667  0 7.2265625  0 6.25  C 0 5.40364583333333  0.264136904761926 4.5947265625  0.792410714285779 3.8232421875  C 1.32068452380963 3.0517578125  2.03125 2.38606770833333  2.92410714285711 1.826171875  C 3.81696428571422 1.26627604166666  4.88095238095229 0.821940104166664  6.11607142857133 0.4931640625  C 7.35119047619037 0.164388020833336  8.64583333333326 0  10 0  C 11.3541666666667 0  12.6488095238096 0.164388020833336  13.8839285714287 0.4931640625  C 15.1190476190477 0.821940104166664  16.1830357142858 1.26627604166666  17.0758928571429 1.826171875  C 17.96875 2.38606770833333  18.6793154761904 3.0517578125  19.2075892857142 3.8232421875  Z " fill-rule="nonzero" fill="#333333" stroke="none" transform="matrix(1 0 0 1 1023 250 )" />
  </g>
</svg>