<?xml version="1.0" encoding="utf-8"?>
<svg version="1.1" xmlns:xlink="http://www.w3.org/1999/xlink" width="99px" height="51px" xmlns="http://www.w3.org/2000/svg">
  <g transform="matrix(1 0 0 1 -285 -232 )">
    <path d="M 285 232  L 384 232  L 384 283  L 285 283  L 285 232  " fill-rule="nonzero" fill="#cccccc" stroke="none" />
    <path d="M 289 236  L 380 236  L 380 279  L 289 279  L 289 236  " fill-rule="nonzero" fill="#ffffff" stroke="none" />
    <path d="M 340.305 247.3  C 338.163 247.3  336.48 245.617  336.48 243.475  C 336.48 241.333  338.163 239.65  340.305 239.65  C 342.447 239.65  344.13 241.333  344.13 243.475  C 344.13 245.617  342.447 247.3  340.305 247.3  " fill-rule="nonzero" fill="#cccccc" stroke="none" />
    <path d="M 291 278  L 291 256  L 313 246  L 343.8 265.636363636364  L 361.4 252  L 379 265.636363636364  L 379 278  L 291 278  " fill-rule="nonzero" fill="#169bd5" stroke="none" />
  </g>
</svg>